<?xml version="1.0" encoding="utf-8"?>
<svg version="1.1" xmlns:xlink="http://www.w3.org/1999/xlink" width="80px" height="25px" xmlns="http://www.w3.org/2000/svg">
  <g transform="matrix(1 0 0 1 -146 -86 )">
    <path d="M 147 96  A 9 9 0 0 1 156 87 L 216 87  A 9 9 0 0 1 225 96 L 225 101  A 9 9 0 0 1 216 110 L 156 110  A 9 9 0 0 1 147 101 L 147 96  Z " fill-rule="nonzero" fill="#f7f7f7" stroke="none" />
    <path d="M 146.5 96  A 9.5 9.5 0 0 1 156 86.5 L 216 86.5  A 9.5 9.5 0 0 1 225.5 96 L 225.5 101  A 9.5 9.5 0 0 1 216 110.5 L 156 110.5  A 9.5 9.5 0 0 1 146.5 101 L 146.5 96  Z " stroke-width="1" stroke="#ec8d26" fill="none" stroke-opacity="0.9921568627450981" />
  </g>
</svg>