<?xml version="1.0" encoding="utf-8"?>
<svg version="1.1" xmlns:xlink="http://www.w3.org/1999/xlink" width="24px" height="24px" xmlns="http://www.w3.org/2000/svg">
  <g transform="matrix(1 0 0 1 -169 -2049 )">
    <path d="M 14.578125 13.961240310077521  C 14.984375 13.459948320413437  15.255208333333336 13.209302325581394  15.390625 13.209302325581394  C 15.526041666666668 13.209302325581394  16.033854166666668 13.436692506459949  16.9140625 13.891472868217056  C 17.794270833333336 14.346253229974158  18.260416666666668 14.620155038759691  18.3125 14.713178294573645  C 18.333333333333336 14.76485788113695  18.34375 14.842377260981912  18.34375 14.945736434108529  C 18.34375 15.286821705426355  18.255208333333336 15.679586563307492  18.078125 16.124031007751938  C 17.911458333333336 16.527131782945737  17.541666666666668 16.865633074935403  16.96875 17.139534883720927  C 16.395833333333336 17.41343669250646  15.864583333333334 17.550387596899228  15.375 17.550387596899228  C 14.781250000000002 17.550387596899228  13.791666666666668 17.229974160206716  12.40625 16.589147286821706  C 11.385416666666668 16.124031007751938  10.5 15.514211886304906  9.75 14.759689922480622  C 9 14.005167958656331  8.229166666666668 13.04909560723514  7.4375 11.891472868217054  C 6.6875 10.785529715762273  6.317708333333334 9.782945736434108  6.328125 8.883720930232558  L 6.328125 8.759689922480618  C 6.359375000000001 7.819121447028421  6.744791666666668 7.002583979328163  7.484375 6.310077519379844  C 7.734375 6.08268733850129  8.005208333333334 5.968992248062015  8.296875 5.968992248062015  C 8.359375 5.968992248062015  8.453125 5.976744186046512  8.578125 5.992248062015503  C 8.703125 6.007751937984497  8.802083333333334 6.015503875968991  8.875 6.015503875968991  C 9.072916666666668 6.015503875968991  9.2109375 6.049095607235141  9.2890625 6.116279069767442  C 9.3671875 6.183462532299741  9.447916666666668 6.325581395348838  9.53125 6.542635658914728  C 9.614583333333334 6.749354005167957  9.786458333333334 7.204134366925062  10.046875 7.906976744186047  C 10.307291666666668 8.609819121447028  10.4375 8.997416020671833  10.4375 9.069767441860465  C 10.4375 9.286821705426355  10.2578125 9.583979328165373  9.8984375 9.96124031007752  C 9.5390625 10.338501291989662  9.359375 10.578811369509044  9.359375 10.68217054263566  C 9.359375 10.754521963824288  9.385416666666668 10.83204134366925  9.4375 10.91472868217054  C 9.791666666666668 11.669250645994833  10.322916666666668 12.377260981912142  11.03125 13.038759689922479  C 11.614583333333334 13.58656330749354  12.401041666666668 14.108527131782946  13.390625 14.604651162790697  C 13.515625 14.677002583979327  13.630208333333332 14.713178294573645  13.734375 14.713178294573645  C 13.890625000000002 14.713178294573645  14.171875000000002 14.4625322997416  14.578125 13.961240310077521  Z M 6.828125 19.813953488372093  C 8.473958333333334 20.88888888888889  10.270833333333332 21.426356589147286  12.21875 21.426356589147286  C 13.541666666666668 21.426356589147286  14.809895833333336 21.167958656330747  16.0234375 20.651162790697676  C 17.236979166666668 20.1343669250646  18.28125 19.441860465116278  19.15625 18.573643410852714  C 20.03125 17.705426356589147  20.729166666666668 16.66925064599483  21.25 15.465116279069768  C 21.770833333333336 14.2609819121447  22.03125 13.002583979328163  22.03125 11.689922480620156  C 22.03125 10.377260981912144  21.770833333333336 9.118863049095605  21.25 7.914728682170542  C 20.729166666666668 6.710594315245477  20.03125 5.674418604651162  19.15625 4.8062015503875966  C 18.28125 3.937984496124031  17.236979166666668 3.245478036175709  16.0234375 2.728682170542636  C 14.809895833333336 2.211886304909558  13.541666666666668 1.953488372093024  12.21875 1.953488372093024  C 10.895833333333334 1.953488372093024  9.627604166666668 2.211886304909558  8.4140625 2.728682170542636  C 7.200520833333334 3.245478036175709  6.15625 3.937984496124031  5.28125 4.8062015503875966  C 4.40625 5.674418604651162  3.7083333333333335 6.710594315245477  3.1875 7.914728682170542  C 2.666666666666667 9.118863049095605  2.40625 10.377260981912144  2.40625 11.689922480620156  C 2.40625 13.788113695090438  3.03125 15.689922480620154  4.28125 17.3953488372093  L 3.046875 21.007751937984498  L 6.828125 19.813953488372093  Z M 7.6484375 0.9302325581395339  C 9.1015625 0.31007751937984374  10.625 0  12.21875 0  C 13.8125 0  15.3359375 0.31007751937984374  16.7890625 0.9302325581395339  C 18.2421875 1.550387596899224  19.494791666666668 2.3824289405684738  20.546875 3.426356589147286  C 21.598958333333336 4.470284237726098  22.4375 5.713178294573645  23.0625 7.155038759689924  C 23.6875 8.5968992248062  24 10.108527131782944  24 11.689922480620156  C 24 13.271317829457363  23.6875 14.78294573643411  23.0625 16.224806201550386  C 22.4375 17.666666666666668  21.598958333333336 18.90956072351421  20.546875 19.953488372093023  C 19.494791666666668 20.997416020671835  18.2421875 21.829457364341085  16.7890625 22.449612403100776  C 15.3359375 23.069767441860467  13.8125 23.37984496124031  12.21875 23.37984496124031  C 10.1875 23.37984496124031  8.286458333333334 22.89405684754522  6.515625 21.92248062015504  L 0 24  L 2.125 17.72093023255814  C 1 15.881136950904393  0.4375 13.870801033591732  0.4375 11.689922480620156  C 0.4375 10.108527131782944  0.75 8.5968992248062  1.375 7.155038759689924  C 2 5.713178294573645  2.838541666666667 4.470284237726098  3.890625 3.426356589147286  C 4.942708333333334 2.3824289405684738  6.1953125 1.550387596899224  7.6484375 0.9302325581395339  Z " fill-rule="nonzero" fill="#f7f7f7" stroke="none" transform="matrix(1 0 0 1 169 2049 )" />
  </g>
</svg>