<?xml version="1.0" encoding="utf-8"?>
<svg version="1.1" xmlns:xlink="http://www.w3.org/1999/xlink" width="10px" height="20px" xmlns="http://www.w3.org/2000/svg">
  <g transform="matrix(1 0 0 1 -270 -538 )">
    <path d="M 7.361111111111112 0  C 8.49537037037037 0  9.375 0.048076923076922906  10 0.14423076923076872  L 10 3.3173076923076916  L 8.18287037037037 3.3173076923076916  C 7.519290123456791 3.3173076923076916  7.0717592592592595 3.4615384615384626  6.840277777777778 3.75  C 6.608796296296297 4.038461538461537  6.493055555555555 4.471153846153846  6.493055555555555 5.048076923076923  L 6.493055555555555 7.319711538461537  L 9.88425925925926 7.319711538461537  L 9.43287037037037 10.877403846153847  L 6.493055555555555 10.877403846153847  L 6.493055555555555 20  L 2.951388888888889 20  L 2.951388888888889 10.877403846153847  L 0 10.877403846153847  L 0 7.319711538461537  L 2.951388888888889 7.319711538461537  L 2.951388888888889 4.699519230769232  C 2.951388888888889 3.2091346153846145  3.3526234567901234 2.0532852564102555  4.155092592592593 1.2319711538461542  C 4.957561728395063 0.4106570512820529  6.026234567901235 0  7.361111111111112 0  Z " fill-rule="nonzero" fill="#f9f9f9" stroke="none" transform="matrix(1 0 0 1 270 538 )" />
  </g>
</svg>