<?xml version="1.0" encoding="utf-8"?>
<svg version="1.1" xmlns:xlink="http://www.w3.org/1999/xlink" width="16px" height="13px" xmlns="http://www.w3.org/2000/svg">
  <g transform="matrix(1 0 0 1 -65 -225 )">
    <path d="M 14.772321428571429 11.73046875  C 14.82886904761905 11.671993371212123  14.857142857142858 11.602746212121213  14.857142857142858 11.522727272727273  L 14.857142857142858 4.4318181818181825  C 14.66666666666667 4.65340909090909  14.461309523809527 4.85653409090909  14.241071428571429 5.0411931818181825  C 12.645833333333334 6.309185606060605  11.377976190476192 7.349431818181819  10.4375 8.16193181818182  C 10.133928571428571 8.426609848484848  9.886904761904763 8.6328125  9.696428571428571 8.780539772727273  C 9.505952380952381 8.928267045454545  9.248511904761907 9.077533143939394  8.924107142857142 9.22833806818182  C 8.599702380952381 9.379142992424242  8.294642857142858 9.454545454545455  8.008928571428571 9.454545454545455  L 8 9.454545454545455  L 7.991071428571429 9.454545454545455  C 7.705357142857143 9.454545454545455  7.4002976190476195 9.379142992424242  7.075892857142857 9.22833806818182  C 6.751488095238096 9.077533143939394  6.4940476190476195 8.928267045454545  6.303571428571429 8.780539772727273  C 6.113095238095239 8.6328125  5.866071428571429 8.426609848484848  5.5625 8.16193181818182  C 4.62202380952381 7.349431818181819  3.3541666666666674 6.309185606060605  1.7589285714285714 5.0411931818181825  C 1.5386904761904763 4.85653409090909  1.3333333333333335 4.65340909090909  1.1428571428571428 4.4318181818181825  L 1.1428571428571428 11.522727272727273  C 1.1428571428571428 11.602746212121213  1.1711309523809526 11.671993371212123  1.2276785714285714 11.73046875  C 1.2842261904761905 11.788944128787877  1.3511904761904763 11.818181818181818  1.4285714285714286 11.818181818181818  L 14.571428571428571 11.818181818181818  C 14.648809523809524 11.818181818181818  14.71577380952381 11.788944128787877  14.772321428571429 11.73046875  Z M 14.441964285714286 3.033025568181818  C 14.71875 2.586766098484847  14.857142857142858 2.1820549242424243  14.857142857142858 1.8188920454545452  L 14.857142857142858 1.7173295454545452  L 14.857142857142858 1.5926846590909096  C 14.857142857142858 1.5926846590909096  14.855654761904763 1.5526751893939372  14.852678571428571 1.47265625  C 14.849702380952381 1.3926373106060597  14.84077380952381 1.3541666666666647  14.825892857142858 1.357244318181818  C 14.811011904761907 1.3603219696969693  14.794642857142858 1.332623106060605  14.776785714285714 1.2741477272727275  C 14.758928571428571 1.2156723484848468  14.732142857142858 1.1925899621212115  14.696428571428571 1.204900568181818  C 14.660714285714286 1.2172111742424243  14.61904761904762 1.2095170454545452  14.571428571428571 1.181818181818182  L 1.4285714285714286 1.181818181818182  C 1.3511904761904763 1.181818181818182  1.2842261904761905 1.2110558712121196  1.2276785714285714 1.26953125  C 1.1711309523809526 1.3280066287878776  1.1428571428571428 1.3972537878787872  1.1428571428571428 1.4772727272727275  C 1.1428571428571428 2.511363636363637  1.5803571428571428 3.3854166666666647  2.455357142857143 4.0994318181818175  C 3.6041666666666674 5.035037878787877  4.797619047619048 6.01065340909091  6.035714285714286 7.02627840909091  C 6.071428571428571 7.057054924242423  6.175595238095239 7.147845643939394  6.348214285714286 7.298650568181819  C 6.520833333333334 7.449455492424242  6.657738095238096 7.564867424242423  6.758928571428571 7.644886363636364  C 6.860119047619049 7.724905303030302  6.992559523809525 7.821851325757574  7.15625 7.935724431818181  C 7.319940476190476 8.049597537878787  7.470238095238096 8.134232954545455  7.607142857142857 8.18963068181818  C 7.7440476190476195 8.24502840909091  7.87202380952381 8.272727272727273  7.991071428571429 8.272727272727273  L 8 8.272727272727273  L 8.008928571428571 8.272727272727273  C 8.127976190476192 8.272727272727273  8.255952380952381 8.24502840909091  8.392857142857142 8.18963068181818  C 8.529761904761907 8.134232954545455  8.680059523809524 8.049597537878787  8.84375 7.935724431818181  C 9.007440476190476 7.821851325757574  9.139880952380953 7.724905303030302  9.241071428571429 7.644886363636364  C 9.342261904761907 7.564867424242423  9.479166666666668 7.449455492424242  9.651785714285714 7.298650568181819  C 9.824404761904763 7.147845643939394  9.928571428571429 7.057054924242423  9.964285714285714 7.02627840909091  C 11.202380952380953 6.01065340909091  12.395833333333334 5.035037878787877  13.544642857142858 4.0994318181818175  C 13.866071428571429 3.834753787878787  14.165178571428571 3.479285037878787  14.441964285714286 3.033025568181818  Z M 15.580357142857142 0.433948863636363  C 15.86011904761905 0.723248106060605  16 1.0710227272727275  16 1.4772727272727275  L 16 11.522727272727273  C 16 11.928977272727273  15.86011904761905 12.276751893939394  15.580357142857142 12.566051136363637  C 15.30059523809524 12.855350378787877  14.964285714285717 13  14.571428571428571 13  L 1.4285714285714286 13  C 1.0357142857142858 13  0.699404761904762 12.855350378787877  0.41964285714285715 12.566051136363637  C 0.13988095238095238 12.276751893939394  0 11.928977272727273  0 11.522727272727273  L 0 1.4772727272727275  C 0 1.0710227272727275  0.13988095238095238 0.723248106060605  0.41964285714285715 0.433948863636363  C 0.699404761904762 0.14464962121211955  1.0357142857142858 0  1.4285714285714286 0  L 14.571428571428571 0  C 14.964285714285717 0  15.30059523809524 0.14464962121211955  15.580357142857142 0.433948863636363  Z " fill-rule="nonzero" fill="#333333" stroke="none" transform="matrix(1 0 0 1 65 225 )" />
  </g>
</svg>