<?xml version="1.0" encoding="utf-8"?>
<svg version="1.1" xmlns:xlink="http://www.w3.org/1999/xlink" width="15px" height="14px" xmlns="http://www.w3.org/2000/svg">
  <g transform="matrix(1 0 0 1 -65 -217 )">
    <path d="M 14.900390625 10.121744791666666  C 14.966796875 10.580512152777777  15 11.06814236111111  15 11.584635416666668  C 15 12.246961805555557  14.755859375 12.815104166666668  14.267578125 13.2890625  C 13.779296875000002 13.763020833333332  13.191406250000002 14  12.50390625 14  L 2.49609375 14  C 1.80859375 14  1.2207031250000002 13.763020833333332  0.7324218750000001 13.2890625  C 0.24414062500000006 12.815104166666668  0 12.246961805555557  0 11.584635416666668  C 0 11.06814236111111  0.033203125000000076 10.580512152777777  0.09960937500000008 10.121744791666666  C 0.16601562500000008 9.662977430555554  0.28906250000000006 9.201171875  0.4687500000000001 8.736328125  C 0.6484375000000002 8.271484375  0.8769531250000001 7.873480902777779  1.154296875 7.542317708333334  C 1.4316406250000002 7.2111545138888875  1.798828125 6.940755208333333  2.255859375 6.731119791666667  C 2.712890625 6.521484375  3.2382812500000004 6.416666666666667  3.8320312500000004 6.416666666666667  C 4.85546875 7.194444444444444  6.078125000000001 7.583333333333334  7.5 7.583333333333334  C 8.921875000000002 7.583333333333334  10.144531250000002 7.194444444444444  11.16796875 6.416666666666667  C 11.76171875 6.416666666666667  12.287109375 6.521484375  12.744140625 6.731119791666667  C 13.201171875 6.940755208333333  13.568359375000002 7.2111545138888875  13.845703125 7.542317708333334  C 14.123046875000002 7.873480902777779  14.3515625 8.271484375  14.53125 8.736328125  C 14.710937500000002 9.201171875  14.833984375000002 9.662977430555554  14.900390625 10.121744791666666  Z M 10.681640625 1.025390625  C 11.560546875 1.708984375  12 2.533854166666667  12 3.5  C 12 4.466145833333333  11.560546875 5.291015625  10.681640625 5.974609375  C 9.802734375 6.658203125  8.7421875 7  7.5 7  C 6.2578125 7  5.197265625 6.658203125  4.318359375 5.974609375  C 3.439453125 5.291015625  3 4.466145833333333  3 3.5  C 3 2.533854166666667  3.439453125 1.708984375  4.318359375 1.025390625  C 5.197265625 0.341796875  6.2578125 0  7.5 0  C 8.7421875 0  9.802734375 0.341796875  10.681640625 1.025390625  Z " fill-rule="nonzero" fill="#333333" stroke="none" fill-opacity="0.3568627450980392" transform="matrix(1 0 0 1 65 217 )" />
  </g>
</svg>