<?xml version="1.0" encoding="utf-8"?>
<svg version="1.1" xmlns:xlink="http://www.w3.org/1999/xlink" width="10px" height="16px" xmlns="http://www.w3.org/2000/svg">
  <g transform="matrix(1 0 0 1 -66 -297 )">
    <path d="M 5.735677083333334 15.10625  C 5.939670138888889 14.910416666666666  6.041666666666666 14.675  6.041666666666666 14.4  C 6.041666666666666 14.125  5.939670138888889 13.889583333333334  5.735677083333334 13.69375  C 5.531684027777778 13.497916666666665  5.286458333333334 13.4  5 13.4  C 4.713541666666667 13.4  4.468315972222222 13.497916666666665  4.264322916666667 13.69375  C 4.060329861111112 13.889583333333334  3.958333333333333 14.125  3.958333333333333 14.4  C 3.958333333333333 14.675  4.060329861111112 14.910416666666666  4.264322916666667 15.10625  C 4.468315972222222 15.302083333333334  4.713541666666667 15.4  5 15.4  C 5.286458333333334 15.4  5.531684027777778 15.302083333333334  5.735677083333334 15.10625  Z M 8.626302083333334 12.68125  C 8.70876736111111 12.602083333333331  8.75 12.508333333333331  8.75 12.4  L 8.75 3.5999999999999996  C 8.75 3.4916666666666654  8.70876736111111 3.3979166666666654  8.626302083333334 3.3187499999999996  C 8.543836805555557 3.239583333333332  8.446180555555557 3.1999999999999993  8.333333333333334 3.1999999999999993  L 1.6666666666666665 3.1999999999999993  C 1.5538194444444444 3.1999999999999993  1.4561631944444444 3.239583333333332  1.3736979166666665 3.3187499999999996  C 1.2912326388888886 3.3979166666666654  1.25 3.4916666666666654  1.25 3.5999999999999996  L 1.25 12.4  C 1.25 12.508333333333331  1.2912326388888886 12.602083333333331  1.3736979166666665 12.68125  C 1.4561631944444444 12.760416666666666  1.5538194444444444 12.8  1.6666666666666665 12.8  L 8.333333333333334 12.8  C 8.446180555555557 12.8  8.543836805555557 12.760416666666666  8.626302083333334 12.68125  Z M 6.041666666666666 2  C 6.180555555555557 2  6.250000000000001 1.9333333333333318  6.25 1.8000000000000007  C 6.250000000000001 1.666666666666666  6.180555555555557 1.5999999999999996  6.041666666666666 1.5999999999999996  L 3.958333333333333 1.5999999999999996  C 3.8194444444444446 1.5999999999999996  3.75 1.666666666666666  3.75 1.8000000000000007  C 3.75 1.9333333333333318  3.8194444444444446 2  3.958333333333333 2  L 6.041666666666666 2  Z M 9.505208333333334 0.47499999999999964  C 9.835069444444443 0.7916666666666661  10 1.166666666666666  10 1.5999999999999996  L 10 14.4  C 10 14.833333333333334  9.835069444444443 15.208333333333334  9.505208333333334 15.525  C 9.175347222222223 15.841666666666665  8.784722222222223 16  8.333333333333334 16  L 1.6666666666666665 16  C 1.215277777777778 16  0.8246527777777778 15.841666666666665  0.49479166666666663 15.525  C 0.16493055555555555 15.208333333333334  0 14.833333333333334  0 14.4  L 0 1.5999999999999996  C 0 1.166666666666666  0.16493055555555555 0.7916666666666661  0.49479166666666663 0.47499999999999964  C 0.8246527777777778 0.15833333333333144  1.215277777777778 0  1.6666666666666665 0  L 8.333333333333334 0  C 8.784722222222223 0  9.175347222222223 0.15833333333333144  9.505208333333334 0.47499999999999964  Z " fill-rule="nonzero" fill="#333333" stroke="none" fill-opacity="0.3568627450980392" transform="matrix(1 0 0 1 66 297 )" />
  </g>
</svg>