<?xml version="1.0" encoding="utf-8"?>
<svg version="1.1" xmlns:xlink="http://www.w3.org/1999/xlink" width="18px" height="17px" xmlns="http://www.w3.org/2000/svg">
  <g transform="matrix(1 0 0 1 -65 -304 )">
    <path d="M 8.299465240641712 5.5527638190954764  C 8.698752228163993 5.154103852596314  8.898395721925134 4.6700167504187595  8.898395721925134 4.100502512562815  C 8.898395721925134 3.530988274706867  8.698752228163993 3.0469011725293127  8.299465240641712 2.648241206030151  C 7.900178253119431 2.249581239530987  7.415329768270945 2.0502512562814066  6.8449197860962565 2.0502512562814066  C 6.274509803921569 2.0502512562814066  5.789661319073084 2.249581239530987  5.3903743315508015 2.648241206030151  C 4.9910873440285215 3.0469011725293127  4.791443850267379 3.530988274706867  4.791443850267379 4.100502512562815  C 4.791443850267379 4.399497487437185  4.859180035650624 4.6949329983249575  4.994652406417113 4.98680904522613  C 4.702317290552585 4.851549413735343  4.406417112299466 4.78391959798995  4.1069518716577535 4.78391959798995  C 3.536541889483066 4.78391959798995  3.0516934046345816 4.983249581239528  2.6524064171122994 5.381909547738694  C 2.253119429590018 5.780569514237856  2.0534759358288768 6.26465661641541  2.0534759358288768 6.834170854271356  C 2.0534759358288768 7.4036850921273025  2.253119429590018 7.887772194304857  2.6524064171122994 8.28643216080402  C 3.0516934046345816 8.685092127303182  3.536541889483066 8.884422110552764  4.1069518716577535 8.884422110552764  C 4.677361853832442 8.884422110552764  5.162210338680927 8.685092127303182  5.561497326203209 8.28643216080402  C 5.96078431372549 7.887772194304857  6.160427807486631 7.4036850921273025  6.160427807486631 6.834170854271356  C 6.160427807486631 6.535175879396984  6.092691622103388 6.239740368509212  5.957219251336898 5.947864321608041  C 6.249554367201426 6.083123953098826  6.545454545454546 6.150753768844221  6.8449197860962565 6.150753768844221  C 7.415329768270945 6.150753768844221  7.900178253119431 5.951423785594638  8.299465240641712 5.5527638190954764  Z M 17.6951871657754 11.180276381909547  C 17.898395721925134 11.415201005025127  18.000000000000004 11.561139028475711  18 11.618090452261308  C 18.000000000000004 11.739112227805693  17.825311942959004 11.974036850921273  17.475935828877006 12.32286432160804  C 17.12655971479501 12.671691792294808  16.891265597147953 12.84610552763819  16.77005347593583 12.84610552763819  C 16.705882352941178 12.84610552763819  16.60427807486631 12.789154103852598  16.46524064171123 12.675251256281408  C 16.32620320855615 12.561348408710217  16.196078431372552 12.44388609715243  16.074866310160427 12.32286432160804  C 15.953654188948308 12.201842546063652  15.816399286987524 12.059463986599665  15.663101604278074 11.895728643216081  C 15.50980392156863 11.731993299832494  15.42245989304813 11.639447236180905  15.401069518716577 11.618090452261308  L 14.37433155080214 12.64321608040201  L 16.727272727272727 14.992462311557789  C 16.926916221033867 15.191792294807371  17.02673796791444 15.433835845896148  17.02673796791444 15.71859296482412  C 17.02673796791444 16.017587939698494  16.887700534759357 16.305904522613066  16.609625668449198 16.583542713567837  C 16.331550802139038 16.861180904522612  16.0427807486631 17  15.743315508021391 17  C 15.458110516934047 17  15.215686274509805 16.90033500837521  15.016042780748663 16.701005025125628  L 7.839572192513368 9.535804020100503  C 6.584670231729056 10.468383584589617  5.283422459893048 10.93467336683417  3.935828877005348 10.93467336683417  C 2.773618538324421 10.93467336683417  1.8270944741532982 10.569828308207708  1.0962566844919788 9.840138190954773  C 0.3654188948306597 9.110448073701843  0 8.165410385259632  0 7.005025125628141  C 0 5.865996649916246  0.3386809269162212 4.751884422110553  1.0160427807486632 3.6626884422110546  C 1.6934046345811056 2.5734924623115574  2.5775401069518717 1.6907453936348398  3.668449197860963 1.0144472361809054  C 4.759358288770054 0.3381490787269672  5.875222816399288 0  7.016042780748663 0  C 8.178253119429591 0  9.124777183600715 0.3648450586264642  9.855614973262032 1.0945351758793964  C 10.58645276292335 1.8242252931323266  10.951871657754012 2.769262981574538  10.951871657754012 3.92964824120603  C 10.951871657754012 5.275125628140704  10.484848484848484 6.574329983249581  9.550802139037433 7.827261306532664  L 13.3475935828877 11.618090452261308  L 14.37433155080214 10.592964824120603  C 14.352941176470589 10.571608040201006  14.260249554367205 10.484401172529312  14.09625668449198 10.331344221105526  C 13.932263814616757 10.17828726968174  13.789661319073087 10.041247906197652  13.668449197860964 9.920226130653267  C 13.547237076648843 9.799204355108879  13.429590017825314 9.66928391959799  13.315508021390375 9.530464824120603  C 13.201426024955438 9.391645728643216  13.144385026737968 9.290201005025127  13.144385026737968 9.226130653266331  C 13.144385026737968 9.105108877721943  13.319073083778967 8.870184254606365  13.668449197860964 8.521356783919597  C 14.01782531194296 8.172529313232829  14.253119429590019 7.998115577889447  14.37433155080214 7.998115577889447  C 14.467023172905527 7.998115577889447  14.549019607843139 8.033710217755443  14.620320855614974 8.104899497487438  C 14.663101604278074 8.147613065326635  14.827094474153299 8.306009212730316  15.112299465240643 8.580087939698492  C 15.397504456327987 8.854166666666666  15.689839572192515 9.13714405360134  15.989304812834224 9.42902010050251  C 16.288770053475936 9.720896147403685  16.597147950089127 10.027010050251256  16.914438502673796 10.347361809045227  C 17.23172905525847 10.667713567839195  17.491978609625672 10.94535175879397  17.6951871657754 11.180276381909547  Z " fill-rule="nonzero" fill="#333333" stroke="none" fill-opacity="0.3568627450980392" transform="matrix(1 0 0 1 65 304 )" />
  </g>
</svg>