<?xml version="1.0" encoding="utf-8"?>
<svg version="1.1" xmlns:xlink="http://www.w3.org/1999/xlink" width="24px" height="24px" xmlns="http://www.w3.org/2000/svg">
  <g transform="matrix(1 0 0 1 -200 -2049 )">
    <path d="M 14.828125 14.828125000000002  C 15.609375 14.046874999999998  16 13.104166666666666  16 12  C 16 10.895833333333332  15.609375 9.953125  14.828125 9.171875  C 14.046875 8.390625  13.104166666666668 8  12 8  C 10.895833333333334 8  9.953125 8.390625  9.171875 9.171875  C 8.390625 9.953125  8 10.895833333333332  8 12  C 8 13.104166666666666  8.390625 14.046874999999998  9.171875 14.828125000000002  C 9.953125 15.609375  10.895833333333334 16  12 16  C 13.104166666666668 16  14.046875 15.609375  14.828125 14.828125000000002  Z M 16.359375 7.640625  C 17.557291666666668 8.838541666666664  18.15625 10.291666666666664  18.15625 12  C 18.15625 13.708333333333334  17.557291666666668 15.161458333333334  16.359375 16.359375  C 15.161458333333334 17.557291666666664  13.708333333333334 18.15625  12 18.15625  C 10.291666666666668 18.15625  8.838541666666668 17.557291666666664  7.640625 16.359375  C 6.442708333333334 15.161458333333334  5.84375 13.708333333333334  5.84375 12  C 5.84375 10.291666666666664  6.442708333333334 8.838541666666664  7.640625 7.640625  C 8.838541666666668 6.442708333333331  10.291666666666668 5.843750000000001  12 5.843750000000001  C 13.708333333333334 5.843750000000001  15.161458333333334 6.442708333333331  16.359375 7.640625  Z M 19.421875 4.578125000000001  C 19.703125 4.859375000000001  19.84375 5.197916666666665  19.84375 5.593749999999999  C 19.84375 5.989583333333333  19.703125 6.328125  19.421875 6.609375  C 19.140625 6.890625  18.802083333333336 7.03125  18.40625 7.03125  C 18.010416666666668 7.03125  17.671875 6.890625  17.390625 6.609375  C 17.109375 6.328125  16.96875 5.989583333333333  16.96875 5.593749999999999  C 16.96875 5.197916666666665  17.109375 4.859375000000001  17.390625 4.578125000000001  C 17.671875 4.296875000000001  18.010416666666668 4.156250000000001  18.40625 4.156250000000001  C 18.802083333333336 4.156250000000001  19.140625 4.296875000000001  19.421875 4.578125000000001  Z M 13.1953125 2.148437499999999  C 12.471354166666668 2.1536458333333313  12.072916666666668 2.15625  12 2.15625  C 11.927083333333334 2.15625  11.528645833333334 2.1536458333333313  10.8046875 2.148437499999999  C 10.080729166666668 2.1432291666666643  9.53125 2.1432291666666643  9.15625 2.148437499999999  C 8.78125 2.1536458333333313  8.278645833333334 2.169270833333333  7.6484375 2.195312499999999  C 7.018229166666668 2.221354166666665  6.481770833333334 2.2734375  6.0390625 2.351562500000001  C 5.596354166666667 2.429687499999999  5.223958333333334 2.526041666666665  4.921875 2.640624999999999  C 4.401041666666667 2.848958333333333  3.9427083333333335 3.1510416666666643  3.546875 3.546875000000001  C 3.151041666666667 3.942708333333332  2.8489583333333335 4.401041666666665  2.640625 4.921875  C 2.526041666666667 5.223958333333331  2.4296875 5.596354166666665  2.3515625 6.039062499999999  C 2.2734375 6.481770833333333  2.221354166666667 7.018229166666664  2.1953125 7.648437500000001  C 2.1692708333333335 8.278645833333332  2.1536458333333335 8.78125  2.1484375 9.15625  C 2.143229166666667 9.53125  2.143229166666667 10.080729166666664  2.1484375 10.8046875  C 2.1536458333333335 11.528645833333332  2.15625 11.927083333333332  2.15625 12  C 2.15625 12.072916666666666  2.1536458333333335 12.471354166666666  2.1484375 13.1953125  C 2.143229166666667 13.919270833333334  2.143229166666667 14.468749999999998  2.1484375 14.843749999999998  C 2.1536458333333335 15.218749999999998  2.1692708333333335 15.721354166666663  2.1953125 16.3515625  C 2.221354166666667 16.98177083333333  2.2734375 17.518229166666664  2.3515625 17.9609375  C 2.4296875 18.403645833333332  2.526041666666667 18.776041666666664  2.640625 19.078125  C 2.8489583333333335 19.598958333333332  3.151041666666667 20.057291666666668  3.546875 20.453125  C 3.9427083333333335 20.848958333333332  4.401041666666667 21.151041666666668  4.921875 21.359375  C 5.223958333333334 21.473958333333332  5.596354166666667 21.5703125  6.0390625 21.6484375  C 6.481770833333334 21.7265625  7.018229166666668 21.778645833333332  7.6484375 21.8046875  C 8.278645833333334 21.830729166666668  8.78125 21.846354166666668  9.15625 21.8515625  C 9.53125 21.856770833333332  10.080729166666668 21.856770833333332  10.8046875 21.8515625  C 11.528645833333334 21.846354166666668  11.927083333333334 21.84375  12 21.84375  C 12.072916666666668 21.84375  12.471354166666668 21.846354166666668  13.1953125 21.8515625  C 13.919270833333334 21.856770833333332  14.46875 21.856770833333332  14.84375 21.8515625  C 15.21875 21.846354166666668  15.721354166666668 21.830729166666668  16.3515625 21.8046875  C 16.981770833333336 21.778645833333332  17.518229166666668 21.7265625  17.9609375 21.6484375  C 18.403645833333336 21.5703125  18.776041666666668 21.473958333333332  19.078125 21.359375  C 19.598958333333336 21.151041666666668  20.057291666666668 20.848958333333332  20.453125 20.453125  C 20.848958333333336 20.057291666666668  21.151041666666668 19.598958333333332  21.359375 19.078125  C 21.473958333333336 18.776041666666664  21.5703125 18.403645833333332  21.6484375 17.9609375  C 21.7265625 17.518229166666664  21.778645833333336 16.98177083333333  21.8046875 16.3515625  C 21.830729166666668 15.721354166666663  21.846354166666668 15.218749999999998  21.8515625 14.843749999999998  C 21.856770833333336 14.468749999999998  21.856770833333336 13.919270833333334  21.8515625 13.1953125  C 21.846354166666668 12.471354166666666  21.84375 12.072916666666666  21.84375 12  C 21.84375 11.927083333333332  21.846354166666668 11.528645833333332  21.8515625 10.8046875  C 21.856770833333336 10.080729166666664  21.856770833333336 9.53125  21.8515625 9.15625  C 21.846354166666668 8.78125  21.830729166666668 8.278645833333332  21.8046875 7.648437500000001  C 21.778645833333336 7.018229166666664  21.7265625 6.481770833333333  21.6484375 6.039062499999999  C 21.5703125 5.596354166666665  21.473958333333336 5.223958333333331  21.359375 4.921875  C 21.151041666666668 4.401041666666665  20.848958333333336 3.942708333333332  20.453125 3.546875000000001  C 20.057291666666668 3.1510416666666643  19.598958333333336 2.848958333333333  19.078125 2.640624999999999  C 18.776041666666668 2.526041666666665  18.403645833333336 2.429687499999999  17.9609375 2.351562500000001  C 17.518229166666668 2.2734375  16.981770833333336 2.221354166666665  16.3515625 2.195312499999999  C 15.721354166666668 2.169270833333333  15.21875 2.1536458333333313  14.84375 2.148437499999999  C 14.46875 2.1432291666666643  13.919270833333334 2.1432291666666643  13.1953125 2.148437499999999  Z M 23.921875 7.046874999999999  C 23.973958333333332 7.963541666666665  24 9.614583333333332  24 12  C 24 14.385416666666668  23.973958333333332 16.036458333333332  23.921875 16.953125  C 23.817708333333336 19.119791666666668  23.171875 20.796875  21.984375 21.984375  C 20.796875 23.171875  19.119791666666668 23.817708333333332  16.953125 23.921875  C 16.036458333333336 23.973958333333332  14.385416666666668 24  12 24  C 9.614583333333334 24  7.963541666666666 23.973958333333332  7.046875 23.921875  C 4.880208333333334 23.817708333333332  3.2031250000000004 23.171875  2.015625 21.984375  C 0.828125 20.796875  0.18229166666666669 19.119791666666668  0.078125 16.953125  C 0.026041666666666664 16.036458333333332  0 14.385416666666668  0 12  C 0 9.614583333333332  0.026041666666666664 7.963541666666665  0.078125 7.046874999999999  C 0.18229166666666669 4.880208333333332  0.828125 3.203124999999999  2.015625 2.015625  C 3.2031250000000004 0.8281250000000009  4.880208333333334 0.1822916666666652  7.046875 0.07812500000000089  C 7.963541666666666 0.02604166666666341  9.614583333333334 0  12 0  C 14.385416666666668 0  16.036458333333336 0.02604166666666341  16.953125 0.07812500000000089  C 19.119791666666668 0.1822916666666652  20.796875 0.8281250000000009  21.984375 2.015625  C 23.171875 3.203124999999999  23.817708333333336 4.880208333333332  23.921875 7.046874999999999  Z " fill-rule="nonzero" fill="#f7f7f7" stroke="none" transform="matrix(1 0 0 1 200 2049 )" />
  </g>
</svg>