<?xml version="1.0" encoding="utf-8"?>
<svg version="1.1" xmlns:xlink="http://www.w3.org/1999/xlink" width="24px" height="22px" xmlns="http://www.w3.org/2000/svg">
  <g transform="matrix(1 0 0 1 -138 -2051 )">
    <path d="M 21.16751269035533 3.4718750000000007  C 22.111675126903556 3.3572916666666663  23.055837563451778 3.0708333333333298  24 2.6125000000000007  C 23.319796954314725 3.7354166666666644  22.497461928934012 4.692187499999999  21.532994923857867 5.482812500000001  C 21.54314720812183 5.643229166666666  21.548223350253807 5.883854166666664  21.548223350253807 6.204687499999999  C 21.548223350253807 7.694270833333331  21.35532994923858 9.180989583333332  20.96954314720812 10.66484375  C 20.583756345177665 12.148697916666665  19.99746192893401 13.572395833333333  19.210659898477157 14.935937500000001  C 18.423857868020306 16.299479166666664  17.487309644670052 17.50546875  16.401015228426395 18.55390625  C 15.314720812182742 19.60234375  14.00507614213198 20.438802083333336  12.472081218274113 21.06328125  C 10.939086294416244 21.687760416666666  9.299492385786804 22  7.553299492385786 22  C 4.802030456852792 22  2.284263959390863 21.169270833333336  0 19.5078125  C 0.35532994923857886 19.553645833333334  0.7512690355329951 19.5765625  1.1878172588832487 19.5765625  C 3.4720812182741128 19.5765625  5.50761421319797 18.7859375  7.2944162436548226 17.2046875  C 6.228426395939087 17.18177083333333  5.274111675126904 16.81223958333333  4.431472081218274 16.09609375  C 3.588832487309645 15.379947916666664  3.0101522842639596 14.466145833333332  2.6954314720812182 13.3546875  C 3.030456852791878 13.411979166666667  3.3401015228426405 13.440625  3.624365482233503 13.440625  C 4.060913705583756 13.440625  4.49238578680203 13.377604166666666  4.918781725888325 13.251562499999999  C 3.781725888324874 12.988020833333334  2.84010152284264 12.349218749999999  2.0939086294416245 11.33515625  C 1.3477157360406091 10.32109375  0.9746192893401018 9.14375  0.9746192893401014 7.803125000000001  L 0.9746192893401014 7.734375  C 1.6649746192893402 8.169791666666667  2.4060913705583755 8.404687499999998  3.1979695431472086 8.439062499999999  C 2.527918781725888 7.934895833333332  1.9949238578680202 7.276041666666666  1.5989847715736043 6.462499999999999  C 1.2030456852791878 5.648958333333329  1.0050761421319798 4.766666666666664  1.0050761421319798 3.8156250000000007  C 1.0050761421319798 2.807291666666666  1.2284263959390864 1.873437500000001  1.6751269035532994 1.014062500000001  C 2.903553299492386 2.721354166666666  4.398477157360407 4.087760416666667  6.159898477157361 5.11328125  C 7.921319796954315 6.138802083333333  9.807106598984772 6.708854166666667  11.81725888324873 6.823437500000001  C 11.736040609137056 6.388020833333332  11.695431472081218 5.964062499999998  11.695431472081218 5.551562499999999  C 11.695431472081218 4.016145833333329  12.175126903553299 2.70703125  13.13451776649746 1.6242187500000005  C 14.093908629441623 0.541406250000001  15.253807106598988 0  16.614213197969544 0  C 18.035532994923862 0  19.233502538071065 0.584375000000001  20.208121827411166 1.7531250000000005  C 21.314720812182742 1.5124999999999995  22.355329949238577 1.0656250000000005  23.329949238578678 0.412500000000001  C 22.954314720812185 1.7302083333333302  22.233502538071072 2.75  21.16751269035533 3.4718750000000007  Z " fill-rule="nonzero" fill="#f7f7f7" stroke="none" transform="matrix(1 0 0 1 138 2051 )" />
  </g>
</svg>